####
#
# OBJ File Generated by Meshlab
#
####
# Object color-logo.obj
#
# Vertices: 8
# Faces: 8
#
####
vn 0.290274 0.798868 0.532694
v 1.000000 1.618000 0.000000 0.003922 0.000000 1.000000
vn 1.389992 -0.541465 -0.402776
v 1.618000 0.000000 -1.000000 0.003922 1.000000 1.000000
vn -0.666205 0.729361 -1.188147
v 0.000000 1.000000 -1.618000 0.000000 1.000000 1.000000
vn -0.171063 -0.224600 0.084434
v -1.000000 -1.618000 -0.000000 1.000000 0.000000 1.000000
vn 0.171063 -0.224600 -0.084434
v 1.000000 -1.618000 -0.000000 0.003922 0.000000 1.000000
vn 0.666205 0.729361 1.188147
v 0.000000 1.000000 1.618000 0.000000 0.003922 1.000000
vn -0.290274 0.798868 -0.532694
v -1.000000 1.618000 0.000000 1.000000 0.000000 1.000000
vn -1.389992 -0.541465 0.402776
v -1.618000 -0.000000 1.000000 1.000000 0.003922 1.000000
# 8 vertices, 0 vertices normals

f 1//1 2//2 3//3
f 2//2 1//1 4//4
f 1//1 3//3 4//4
f 3//3 2//2 4//4
f 6//6 5//5 7//7
f 7//7 5//5 8//8
f 8//8 5//5 6//6
f 7//7 8//8 6//6
# 8 faces, 0 coords texture

# End of File
